<svg xmlns="http://www.w3.org/2000/svg" width="352" height="64" viewBox="0 0 352 64"><g transform="translate(0 0)"><g class="nc-icon-wrapper"><polygon fill="#87613E" points="38,3 10,3 2,12 2,25 46,25 46,12 "/> <path fill="#87613E" d="M46,26H2c-0.55225,0-1-0.44727-1-1V12c0-0.24512,0.08984-0.48145,0.25244-0.66406l8-9 C9.44238,2.12207,9.71436,2,10,2h28c0.28564,0,0.55762,0.12207,0.74756,0.33594l8,9C46.91016,11.51855,47,11.75488,47,12v13 C47,25.55273,46.55225,26,46,26z M3,24h42V12.37988L37.55078,4H10.44922L3,12.37988V24z"/> <path fill="#C19F85" d="M45,45H3c-1.10457,0-2-0.89543-2-2V12c0-0.55229,0.44772-1,1-1h44c0.55228,0,1,0.44771,1,1v31 C47,44.10457,46.10457,45,45,45z"/> <rect x="1" y="27" fill="#A67C52" width="46" height="2"/> <path fill="#EFD358" d="M29,20H19c-0.55225,0-1-0.44727-1-1s0.44775-1,1-1h10c0.55225,0,1,0.44727,1,1S29.55225,20,29,20z"/> <path fill="#EFD358" d="M29,38H19c-0.55225,0-1-0.44727-1-1s0.44775-1,1-1h10c0.55225,0,1,0.44727,1,1S29.55225,38,29,38z"/> <rect x="7" y="7" fill="#E6E6E6" width="34" height="4"/> <rect x="10" y="4" fill="#CCCCCC" width="28" height="3"/></g></g><g transform="translate(48 0)"><g class="nc-icon-wrapper" stroke-linecap="square" stroke-linejoin="miter" stroke-width="2" fill="#111111" stroke="#111111"><rect x="8" y="18" fill="none" stroke="#111111" stroke-miterlimit="10" width="48" height="44"/> <line data-color="color-2" fill="none" stroke-miterlimit="10" x1="14" y1="10" x2="50" y2="10"/> <line data-color="color-2" fill="none" stroke-miterlimit="10" x1="22" y1="2" x2="42" y2="2"/> <polyline data-color="color-2" fill="none" stroke-miterlimit="10" points=" 42,32 42,36 22,36 22,32 "/></g></g><g transform="translate(112 0)"><g class="nc-icon-wrapper" fill="#111111"><path fill="#111111" d="M57,15H7c-1.105,0-2,0.895-2,2v42c0,1.105,0.895,2,2,2h50c1.105,0,2-0.895,2-2V17C59,15.895,58.105,15,57,15 z M43,34c0,0.553-0.448,1-1,1H22c-0.552,0-1-0.447-1-1v-5c0-0.553,0.448-1,1-1s1,0.447,1,1v4h18v-4c0-0.553,0.448-1,1-1s1,0.447,1,1 V34z"/> <path data-color="color-2" d="M52,8H12c-0.552,0-1,0.448-1,1v4h42V9C53,8.448,52.552,8,52,8z"/> <path data-color="color-2" d="M46,3H18c-0.552,0-1,0.448-1,1v2h30V4C47,3.448,46.552,3,46,3z"/></g></g><g transform="translate(176 0)"><g class="nc-icon-wrapper"><polygon fill="#87613E" points="38,3 10,3 2,12 2,25 46,25 46,12 "/> <path fill="#87613E" d="M46,26H2c-0.55225,0-1-0.44727-1-1V12c0-0.24512,0.08984-0.48145,0.25244-0.66406l8-9 C9.44238,2.12207,9.71436,2,10,2h28c0.28564,0,0.55762,0.12207,0.74756,0.33594l8,9C46.91016,11.51855,47,11.75488,47,12v13 C47,25.55273,46.55225,26,46,26z M3,24h42V12.37988L37.55078,4H10.44922L3,12.37988V24z"/> <path fill="#C19F85" d="M45,45H3c-1.10457,0-2-0.89543-2-2V12c0-0.55229,0.44772-1,1-1h44c0.55228,0,1,0.44771,1,1v31 C47,44.10457,46.10457,45,45,45z"/> <rect x="1" y="27" fill="#A67C52" width="46" height="2"/> <path fill="#EFD358" d="M29,20H19c-0.55225,0-1-0.44727-1-1s0.44775-1,1-1h10c0.55225,0,1,0.44727,1,1S29.55225,20,29,20z"/> <path fill="#EFD358" d="M29,38H19c-0.55225,0-1-0.44727-1-1s0.44775-1,1-1h10c0.55225,0,1,0.44727,1,1S29.55225,38,29,38z"/> <rect x="7" y="7" fill="#E6E6E6" width="34" height="4"/> <rect x="10" y="4" fill="#CCCCCC" width="28" height="3"/></g></g><g transform="translate(224 0)"><g class="nc-icon-wrapper" stroke-linecap="square" stroke-linejoin="miter" stroke-width="2" fill="#ee6b5d" stroke="#ee6b5d"><rect x="8" y="18" fill="none" stroke="#ee6b5d" stroke-miterlimit="10" width="48" height="44"/> <line data-color="color-2" fill="none" stroke-miterlimit="10" x1="14" y1="10" x2="50" y2="10"/> <line data-color="color-2" fill="none" stroke-miterlimit="10" x1="22" y1="2" x2="42" y2="2"/> <polyline data-color="color-2" fill="none" stroke-miterlimit="10" points=" 42,32 42,36 22,36 22,32 "/></g></g><g transform="translate(288 0)"><g class="nc-icon-wrapper" fill="#ee6b5d"><path fill="#ee6b5d" d="M57,15H7c-1.105,0-2,0.895-2,2v42c0,1.105,0.895,2,2,2h50c1.105,0,2-0.895,2-2V17C59,15.895,58.105,15,57,15 z M43,34c0,0.553-0.448,1-1,1H22c-0.552,0-1-0.447-1-1v-5c0-0.553,0.448-1,1-1s1,0.447,1,1v4h18v-4c0-0.553,0.448-1,1-1s1,0.447,1,1 V34z"/> <path data-color="color-2" d="M52,8H12c-0.552,0-1,0.448-1,1v4h42V9C53,8.448,52.552,8,52,8z"/> <path data-color="color-2" d="M46,3H18c-0.552,0-1,0.448-1,1v2h30V4C47,3.448,46.552,3,46,3z"/></g></g></svg>